<?xml version="1.0" standalone="no"?>
<!DOCTYPE svg PUBLIC "-//W3C//DTD SVG 1.1//EN"
  "http://www.w3.org/Graphics/SVG/1.1/DTD/svg11.dtd">
<svg width="147.10000610351562mm" height="72.5mm" viewBox="-265.1000061035156 8 147.10000610351562 72.5" xmlns="http://www.w3.org/2000/svg" version="1.1">
	<title>svgOutput</title>
	<desc>made with tinkercad</desc>
<path d="M -252.4980010986328 9 L -243 9 L -243 12 L -223 12 L -223 9 L -202 9 L -202 12 L -182 12 L -182 9 L -162 9 L -162 12 L -142 12 L -142 9 L -130.0030059814453 9 L -130.0030059814453 12.003000259399414 L -123 12.003000259399414 L -123 12 L -122 12 L -119 12 L -119 20 L -122 20 L -122 37.5 L -122 38 L -119 38 L -119 50 L -122 50 L -122 69.5 L -119 69.5 L -119 79.5 L -122 79.5 L -122 79.49800109863281 L -131.07200622558594 79.49800109863281 L -142 79.49800109863281 L -162 79.49800109863281 L -181.9969940185547 79.49800109863281 L -182 79.49800109863281 L -196.60800170898438 79.49800109863281 L -202 79.49800109863281 L -203.08059692382812 79.49800109863281 L -205.41400146484375 79.39099884033203 L -210.96299743652344 79.05500030517578 L -216.22799682617188 78.6520004272461 L -221.1580047607422 78.18399810791016 L -223 77.9706039428711 L -225.70700073242188 77.65699768066406 L -229.82899475097656 77.07499694824219 L -233.48500061035156 76.44499969482422 L -234.51278686523438 76.22550201416016 L -236.64100646972656 75.77100372314453 L -239.26499938964844 75.06199645996094 L -241.33299255371094 74.3219985961914 L -242.62249755859375 73.66429138183594 L -243 73.07274627685547 L -243.68460083007812 72 L -244.0290069580078 71.4603500366211 L -253.28538513183594 56.95599365234375 L -255 53.52098083496094 L -255.0548858642578 53.4110221862793 L -262.54608154296875 38.4033317565918 L -262.865966796875 37.5 L -262.99700927734375 37.12996292114258 L -263 37.12149429321289 L -264.1000061035156 34.01506805419922 L -264.1000061035156 17.899999618530273 L -264.1000061035156 12.003000259399414 L -255 12.003000259399414 L -252.4980010986328 12.003000259399414 L -252.4980010986328 9 z" fill="none" stroke="rgb(0,0,255)" stroke-width="0.01mm" />
</svg>