<?xml version="1.0" standalone="no"?>
<!DOCTYPE svg PUBLIC "-//W3C//DTD SVG 1.1//EN"
  "http://www.w3.org/Graphics/SVG/1.1/DTD/svg11.dtd">
<svg width="236.2490005493164mm" height="72.5mm" viewBox="-112.5 -42.5 236.2490005493164 72.5" xmlns="http://www.w3.org/2000/svg" version="1.1">
	<title>svgOutput</title>
	<desc>made with tinkercad</desc>
<path d="M 33.599998474121094 -30.5 L 30.600000381469727 -30.5 L 30.600000381469727 -13 L 30.600000381469727 -12.5 L 33.599998474121094 -12.5 L 33.599998474121094 -0.4999999999999999 L 30.600000381469727 -0.4999999999999999 L 30.600000381469727 19 L 33.599998474121094 19 L 33.599998474121094 29 L 30.600000381469727 29 L 30.600000381469727 28.99799919128418 L 10.600000381469727 28.99799919128418 L 0 28.99799919128418 L -9.399999618530273 28.99799919128418 L -29.39699935913086 28.99799919128418 L -29.399999618530273 28.99799919128418 L -49.400001525878906 28.99799919128418 L -50.4805908203125 28.99799919128418 L -52.81399917602539 28.891000747680664 L -58.362998962402344 28.55500030517578 L -63.62799835205078 28.152000427246094 L -65.53600311279297 27.970874786376953 L -68.55799865722656 27.68400001525879 L -70.4000015258789 27.470605850219727 L -73.10700225830078 27.156999588012695 L -77.22899627685547 26.575000762939453 L -80.88500213623047 25.94499969482422 L -81.91278839111328 25.72550392150879 L -84.04100036621094 25.270999908447266 L -86.66500091552734 24.562000274658203 L -88.73300170898438 23.82200050354004 L -90.02249145507812 23.164291381835938 L -90.4000015258789 22.5727481842041 L -91.08460998535156 21.5 L -91.42900085449219 20.960350036621094 L -100.68538665771484 6.455993175506592 L -102.4000015258789 3.0209827423095703 L -102.45488739013672 2.9110236167907715 L -109.94538116455078 -12.095236778259277 L -110.2657470703125 -13 L -110.39700317382812 -13.370689392089844 L -110.4000015258789 -13.379161834716797 L -111.5 -16.48575210571289 L -111.5 -32.599998474121094 L -111.5 -38.49700164794922 L -102.4000015258789 -38.49700164794922 L -99.89700317382812 -38.49700164794922 L -99.89700317382812 -41.5 L -90.4000015258789 -41.5 L -90.4000015258789 -38.5 L -70.4000015258789 -38.5 L -70.4000015258789 -41.5 L -49.400001525878906 -41.5 L -49.400001525878906 -38.5 L -29.399999618530273 -38.5 L -29.399999618530273 -41.5 L -9.399999618530273 -41.5 L -9.399999618530273 -38.5 L 10.600000381469727 -38.5 L 10.600000381469727 -41.5 L 22.597000122070312 -41.5 L 22.597000122070312 -38.49700164794922 L 29.600000381469727 -38.49700164794922 L 29.600000381469727 -38.5 L 30.600000381469727 -38.5 L 33.599998474121094 -38.5 L 33.599998474121094 -30.5 M 122.7490005493164 9.998000144958496 L 112.75299835205078 9.998000144958496 L 112.75299835205078 13 L 93.2509994506836 13 L 93.2509994506836 9.998000144958496 L 81.2509994506836 9.998000144958496 L 81.2509994506836 13 L 63.249000549316406 13 L 63.249000549316406 9.998000144958496 L 57.250999450683594 9.998000144958496 L 55.25400161743164 9.998000144958496 L 55.25400161743164 3 L 55.25400161743164 2.997999906539917 L 55.250999450683594 2.997999906539917 L 52.250999450683594 2.997999906539917 L 52.250999450683594 -2 L 55.250999450683594 -2 L 55.250999450683594 -7 L 52.250999450683594 -7 L 52.250999450683594 -17 L 55.250999450683594 -17 L 55.250999450683594 -27 L 52.250999450683594 -27 L 52.250999450683594 -37 L 55.250999450683594 -37 L 57.250999450683594 -37 L 122.7490005493164 -37 L 122.7490005493164 -27 L 122.7490005493164 -17 L 122.7490005493164 -7 L 122.7490005493164 3 L 122.7490005493164 9.998000144958496 z" fill="none" stroke="rgb(0,0,255)" stroke-width="0.01mm" />
</svg>