<?xml version="1.0" standalone="no"?>
<!DOCTYPE svg PUBLIC "-//W3C//DTD SVG 1.1//EN"
  "http://www.w3.org/Graphics/SVG/1.1/DTD/svg11.dtd">
<svg width="72.49700164794922mm" height="52mm" viewBox="-158.4980010986328 -80 72.49700164794922 52" xmlns="http://www.w3.org/2000/svg" version="1.1">
	<title>svgOutput</title>
	<desc>made with tinkercad</desc>
<path d="M -87.0009994506836 -32.00199890136719 L -96.99600219726562 -32.00199890136719 L -96.99600219726562 -29 L -116.49800109863281 -29 L -116.49800109863281 -32.00199890136719 L -128.4980010986328 -32.00199890136719 L -128.4980010986328 -29 L -146.5 -29 L -146.5 -32.00199890136719 L -152.4980010986328 -32.00199890136719 L -154.49600219726562 -32.00199890136719 L -154.49600219726562 -39 L -154.49600219726562 -39.00299835205078 L -154.4980010986328 -39.00299835205078 L -157.4980010986328 -39.00299835205078 L -157.4980010986328 -44 L -154.4980010986328 -44 L -154.4980010986328 -49 L -157.4980010986328 -49 L -157.4980010986328 -59 L -154.4980010986328 -59 L -154.4980010986328 -69 L -157.4980010986328 -69 L -157.4980010986328 -79 L -154.4980010986328 -79 L -152.4980010986328 -79 L -87.0009994506836 -79 L -87.0009994506836 -69 L -87.0009994506836 -59 L -87.0009994506836 -49 L -87.0009994506836 -39 L -87.0009994506836 -32.00199890136719 z" fill="none" stroke="rgb(0,0,255)" stroke-width="0.01mm" />
</svg>